<svg width="1442" height="202" viewBox="0 0 1442 202" fill="none" xmlns="http://www.w3.org/2000/svg">
<g opacity="0.5">
<path d="M1 151L190.811 81.7363C245.088 61.9303 304.73 62.631 358.526 83.7067V83.7067C401.813 100.665 449.13 104.519 494.59 94.7908L534.562 86.2368C588.773 74.6353 645.241 79.9828 696.311 101.554L708.273 106.607C774.846 134.726 850.486 131.715 914.612 98.3933V98.3933C972.91 68.1001 1041 62.7361 1103.32 83.5268L1134.43 93.9046C1195.2 114.179 1260.9 114.312 1321.75 94.2832V94.2832C1351.79 84.3963 1383.22 79.3582 1414.84 79.3582H1441" stroke="#68AFFD" stroke-width="3"/>
<path d="M1441 201L1251.19 131.736C1196.91 111.93 1137.27 112.631 1083.47 133.707V133.707C1040.19 150.665 992.87 154.519 947.41 144.791L907.438 136.237C853.227 124.635 796.759 129.983 745.689 151.554L733.727 156.607C667.154 184.726 591.514 181.715 527.388 148.393V148.393C469.09 118.1 401.002 112.736 338.68 133.527L307.571 143.905C246.797 164.179 181.104 164.312 120.248 144.283V144.283C90.2069 134.396 58.7829 129.358 27.1571 129.358H0.999979" stroke="#68AFFD"/>
<path d="M1441 1L1251.19 70.2637C1196.91 90.0697 1137.27 89.369 1083.47 68.2933V68.2933C1040.19 51.3352 992.87 47.4806 947.41 57.2092L907.438 65.7632C853.227 77.3647 796.759 72.0172 745.689 50.4458L733.727 45.393C667.154 17.2737 591.514 20.2847 527.388 53.6067V53.6067C469.09 83.8999 401.002 89.2639 338.68 68.4732L307.571 58.0954C246.797 37.821 181.104 37.6882 120.248 57.7168V57.7168C90.2069 67.6037 58.7829 72.6418 27.1571 72.6418H0.999979" stroke="#68AFFD"/>
</g>
</svg>
