<svg width="25" height="25" viewBox="0 0 25 25" fill="none" xmlns="http://www.w3.org/2000/svg">
<g clip-path="url(#clip0_31_2047)">
<path d="M21.1261 10.2783C21.1261 17.2783 12.1261 23.2783 12.1261 23.2783C12.1261 23.2783 3.1261 17.2783 3.1261 10.2783C3.1261 7.89137 4.07431 5.60219 5.76214 3.91436C7.44996 2.22653 9.73915 1.27832 12.1261 1.27832C14.513 1.27832 16.8022 2.22653 18.4901 3.91436C20.1779 5.60219 21.1261 7.89137 21.1261 10.2783Z" stroke="white" stroke-linecap="round" stroke-linejoin="round"/>
<path d="M12.1261 13.2783C13.783 13.2783 15.1261 11.9352 15.1261 10.2783C15.1261 8.62147 13.783 7.27832 12.1261 7.27832C10.4692 7.27832 9.1261 8.62147 9.1261 10.2783C9.1261 11.9352 10.4692 13.2783 12.1261 13.2783Z" stroke="white" stroke-linecap="round" stroke-linejoin="round"/>
</g>
<defs>
<clipPath id="clip0_31_2047">
<rect width="24" height="24" fill="white" transform="translate(0.126099 0.27832)"/>
</clipPath>
</defs>
</svg>
